<svg width="80" height="80" viewBox="0 0 80 80" fill="none" xmlns="http://www.w3.org/2000/svg">
<path d="M40.0002 19.9999C45.3045 19.9999 50.3916 22.1071 54.1423 25.8578C57.893 29.6085 60.0002 34.6956 60.0002 39.9999C60.0002 47.3999 55.9668 53.8666 50.0002 57.3333V63.3333C50.0002 64.2173 49.649 65.0652 49.0239 65.6903C48.3987 66.3154 47.5509 66.6666 46.6668 66.6666H33.3335C32.4494 66.6666 31.6016 66.3154 30.9765 65.6903C30.3514 65.0652 30.0002 64.2173 30.0002 63.3333V57.3333C24.0335 53.8666 20.0002 47.3999 20.0002 39.9999C20.0002 34.6956 22.1073 29.6085 25.858 25.8578C29.6088 22.1071 34.6958 19.9999 40.0002 19.9999ZM46.6668 69.9999V73.3333C46.6668 74.2173 46.3156 75.0652 45.6905 75.6903C45.0654 76.3154 44.2176 76.6666 43.3335 76.6666H36.6668C35.7828 76.6666 34.9349 76.3154 34.3098 75.6903C33.6847 75.0652 33.3335 74.2173 33.3335 73.3333V69.9999H46.6668ZM66.6668 36.6666H76.6668V43.3333H66.6668V36.6666ZM3.3335 36.6666H13.3335V43.3333H3.3335V36.6666ZM43.3335 3.33325V13.3333H36.6668V3.33325H43.3335ZM16.4002 11.6666L23.5002 18.7999L18.7668 23.4999L11.6668 16.4333L16.4002 11.6666ZM56.5002 18.7666L63.5668 11.6666L68.3335 16.4333L61.2335 23.4999L56.5002 18.7666Z" fill="#7BB0FF"/>
</svg>
