<svg width="80" height="80" viewBox="0 0 80 80" fill="none" xmlns="http://www.w3.org/2000/svg">
<path d="M63.3332 33.3334C63.3332 37.9334 56.2665 41.6667 51.6665 41.6667C47.0665 41.6667 42.4998 37.9334 42.4998 33.3334H37.4998C37.4998 37.9334 32.9332 41.6667 28.3332 41.6667C23.7332 41.6667 16.6665 37.9334 16.6665 33.3334H14.1665C13.6332 35.4667 13.3332 37.7001 13.3332 40.0001C13.3332 47.0725 16.1427 53.8553 21.1437 58.8563C26.1446 63.8572 32.9274 66.6667 39.9998 66.6667C47.0723 66.6667 53.855 63.8572 58.856 58.8563C63.857 53.8553 66.6665 47.0725 66.6665 40.0001C66.6665 37.7001 66.3665 35.4667 65.8332 33.3334H63.3332ZM39.9998 13.3334C30.1332 13.3334 21.4998 18.7001 16.8998 26.6667H63.0998C58.4998 18.7001 49.8665 13.3334 39.9998 13.3334ZM73.3332 40.0001C73.3332 48.8406 69.8213 57.3191 63.5701 63.5703C57.3188 69.8215 48.8404 73.3334 39.9998 73.3334C35.6224 73.3334 31.2879 72.4712 27.2437 70.7961C23.1995 69.1209 19.5249 66.6656 16.4296 63.5703C10.1784 57.3191 6.6665 48.8406 6.6665 40.0001C6.6665 31.1595 10.1784 22.6811 16.4296 16.4299C22.6808 10.1786 31.1593 6.66675 39.9998 6.66675C44.3772 6.66675 48.7118 7.52894 52.756 9.2041C56.8001 10.8793 60.4748 13.3346 63.5701 16.4299C66.6653 19.5251 69.1207 23.1998 70.7958 27.244C72.471 31.2882 73.3332 35.6227 73.3332 40.0001ZM39.9998 57.4334C34.1665 57.4334 29.0332 55.0001 26.0332 51.4001L30.7665 46.6667C32.2665 49.0667 35.8332 50.7667 39.9998 50.7667C44.1665 50.7667 47.7332 49.0667 49.2332 46.6667L53.9665 51.4001C50.9665 55.0001 45.8332 57.4334 39.9998 57.4334Z" fill="#7BB0FF"/>
</svg>
