<svg width="18" height="16" viewBox="0 0 18 16" fill="none" xmlns="http://www.w3.org/2000/svg">
<path d="M16.0716 11.0714C16.0716 11.2321 16.0381 11.4419 15.9711 11.7009C15.9042 11.9598 15.8338 12.1637 15.7602 12.3125C15.6196 12.6101 15.2111 12.9256 14.5347 13.2589C13.9053 13.5625 13.2825 13.7143 12.6664 13.7143C12.4856 13.7143 12.3098 13.7038 12.1391 13.683C11.9683 13.6622 11.7758 13.625 11.5615 13.5714C11.3472 13.5178 11.1882 13.4747 11.0844 13.4419C10.9806 13.4092 10.7948 13.3482 10.5269 13.2589C10.2591 13.1696 10.095 13.116 10.0347 13.0982C9.37849 12.8898 8.79255 12.6428 8.27693 12.3571C7.41978 11.8869 6.53418 11.2455 5.62012 10.433C4.70605 9.6205 3.98451 8.8333 3.4555 8.07139C3.13407 7.61306 2.85617 7.09223 2.62179 6.50889C2.6017 6.45532 2.54143 6.30949 2.44099 6.07139C2.34054 5.8333 2.2719 5.66812 2.23507 5.57586C2.19824 5.4836 2.14969 5.34223 2.08943 5.15175C2.02916 4.96127 1.9873 4.79014 1.96387 4.63836C1.94043 4.48657 1.92871 4.33032 1.92871 4.16961C1.92871 3.62199 2.09947 3.06842 2.44099 2.50889C2.81599 1.9077 3.1709 1.54461 3.50572 1.41961C3.67313 1.35413 3.90248 1.29163 4.19378 1.23211C4.48507 1.17258 4.72112 1.14282 4.90193 1.14282C4.99568 1.14282 5.06599 1.15175 5.11286 1.16961C5.2334 1.20532 5.41085 1.43151 5.64523 1.84818C5.71889 1.96127 5.81934 2.12199 5.94657 2.33032C6.0738 2.53866 6.19099 2.72764 6.29813 2.89729C6.40527 3.06693 6.50907 3.22616 6.60951 3.37496C6.6296 3.39877 6.6882 3.47318 6.7853 3.59818C6.88239 3.72318 6.95438 3.82883 7.00126 3.91514C7.04813 4.00145 7.07157 4.08627 7.07157 4.16961C7.07157 4.28866 6.97614 4.43746 6.7853 4.61604C6.59445 4.79461 6.38686 4.9583 6.16253 5.10711C5.9382 5.25592 5.73061 5.41366 5.53976 5.58032C5.34891 5.74699 5.25349 5.88389 5.25349 5.99104C5.25349 6.04461 5.27023 6.11157 5.30371 6.19193C5.33719 6.27229 5.36565 6.3333 5.38909 6.37496C5.41253 6.41663 5.4594 6.48806 5.52972 6.58925C5.60003 6.69044 5.63853 6.74699 5.64523 6.75889C6.15416 7.57437 6.73675 8.27377 7.393 8.85711C8.04925 9.44044 8.83608 9.9583 9.75349 10.4107C9.76688 10.4166 9.8305 10.4509 9.94434 10.5134C10.0582 10.5759 10.1385 10.6175 10.1854 10.6384C10.2323 10.6592 10.3009 10.6845 10.3913 10.7143C10.4817 10.744 10.5571 10.7589 10.6173 10.7589C10.7379 10.7589 10.8919 10.6741 11.0794 10.5044C11.2669 10.3348 11.4443 10.1503 11.6117 9.95086C11.7792 9.75145 11.9633 9.56693 12.1642 9.39729C12.3651 9.22764 12.5325 9.14282 12.6664 9.14282C12.7602 9.14282 12.8556 9.16366 12.9527 9.20532C13.0498 9.24699 13.1687 9.31098 13.3093 9.39729C13.4499 9.4836 13.5336 9.53568 13.5604 9.55354C13.7278 9.64282 13.9069 9.73508 14.0978 9.83032C14.2886 9.92556 14.5013 10.0297 14.7356 10.1428C14.97 10.2559 15.1508 10.3452 15.278 10.4107C15.7468 10.619 16.0013 10.7768 16.0414 10.8839C16.0615 10.9256 16.0716 10.9881 16.0716 11.0714Z" fill="black"/>
</svg>
