<svg width="40" height="40" viewBox="0 0 40 40" fill="none" xmlns="http://www.w3.org/2000/svg">
<path d="M24.8339 25.5147L24.8337 25.515C24.3592 26.1966 23.6768 26.7086 22.8223 27.069C21.9608 27.4345 20.9622 27.6065 19.8379 27.6065C18.497 27.6065 17.3442 27.37 16.4088 26.8652C15.7566 26.5144 15.1979 26.0125 14.7795 25.4015L14.7792 25.401C14.3663 24.7967 14.13 24.1672 14.1295 23.5207M24.8339 25.5147L22.5504 18.5023L22.2159 18.8739C22.216 18.874 22.2161 18.8741 22.2162 18.8742C22.507 19.1358 22.8861 19.2222 23.2591 19.2231M24.8339 25.5147C25.3018 24.8415 25.538 24.0766 25.5358 23.2391M24.8339 25.5147L24.6816 21.6794M14.1295 23.5207C14.1283 23.3024 14.1728 23.0863 14.2602 22.8862C14.3475 22.6864 14.4756 22.5071 14.6364 22.3598C14.9676 22.0521 15.4061 21.8864 15.8579 21.8981C16.2519 21.8997 16.6117 22.0236 16.9086 22.2746L16.9172 22.2819L16.9255 22.2896C17.2028 22.5463 17.4169 22.8636 17.5514 23.2166C17.7033 23.5667 17.8606 23.8437 18.0195 24.057C18.1502 24.231 18.3462 24.3923 18.6299 24.5289L18.631 24.5294C18.8768 24.6486 19.2451 24.7252 19.767 24.7252C20.4692 24.7252 20.9843 24.5741 21.3577 24.3181C21.7286 24.0597 21.8525 23.7975 21.8525 23.5023V23.4916L21.8529 23.4809C21.8574 23.3771 21.8396 23.2736 21.8008 23.1772C21.7627 23.0825 21.7051 22.9969 21.6318 22.9259C21.4033 22.7187 21.1305 22.5663 20.8342 22.4805L20.8291 22.479L20.8291 22.479C20.2957 22.3183 19.7549 22.1831 19.2086 22.0738L19.207 22.0735C18.3714 21.9036 17.5537 21.6552 16.7648 21.3315C16.097 21.0589 15.5082 20.6231 15.0524 20.0641L15.0461 20.0563L15.0462 20.0563C14.5918 19.4757 14.3775 18.7706 14.3775 17.9731C14.3775 17.199 14.6088 16.4898 15.0731 15.8789C15.5369 15.2686 16.1926 14.8165 17.0084 14.5111C17.8215 14.206 18.7565 14.0627 19.8025 14.0627C20.6409 14.0627 21.385 14.1583 22.0327 14.3604L22.0367 14.3617L22.0367 14.3617C22.6607 14.5623 23.208 14.8303 23.6562 15.185C24.0835 15.5227 24.4202 15.8981 24.6415 16.3127L24.6426 16.3148C24.852 16.7116 24.9712 17.1246 24.9712 17.546V17.5503L24.9712 17.5503C24.9675 17.9866 24.7922 18.4039 24.4834 18.7119C24.3265 18.8771 24.137 19.0079 23.9268 19.096C23.7156 19.1845 23.4881 19.2278 23.2591 19.2231M14.1295 23.5207C14.1296 23.5212 14.1296 23.5218 14.1296 23.5224L14.6295 23.519H14.1295C14.1295 23.5195 14.1295 23.5201 14.1295 23.5207ZM23.2591 19.2231C23.257 19.2231 23.255 19.223 23.2529 19.223L23.265 18.7231V19.2231C23.263 19.2231 23.2611 19.2231 23.2591 19.2231ZM18.4129 24.9794C18.0712 24.8148 17.8066 24.6065 17.6191 24.3565C17.4295 24.1023 17.2525 23.7856 17.0879 23.4044C16.9811 23.1194 16.8091 22.8633 16.5858 22.6565L18.4129 24.9794ZM18.4129 24.9794C18.7525 25.144 19.2045 25.2252 19.767 25.2252M18.4129 24.9794L19.767 25.2252M22.3525 23.5023H22.3525H22.3525ZM22.3525 23.5023C22.3525 23.9919 22.1212 24.396 21.642 24.7294M22.3525 23.5023L21.642 24.7294M18.3965 18.3392L18.4035 18.3428C18.618 18.4528 18.8371 18.5385 19.0549 18.6002C19.295 18.6677 19.7047 18.7693 20.2857 18.9062C21.0276 19.067 21.7072 19.2458 22.3208 19.4453C22.9487 19.6473 23.4999 19.8981 23.9665 20.2052M18.3965 18.3392L23.692 20.6231M18.3965 18.3392L18.3894 18.3358M18.3965 18.3392L18.3894 18.3358M23.9665 20.2052C23.9667 20.2053 23.9669 20.2054 23.967 20.2055L23.692 20.6231M23.9665 20.2052C23.9664 20.2051 23.9662 20.205 23.9661 20.2049L23.692 20.6231M23.9665 20.2052C24.4549 20.5252 24.8406 20.9365 25.1184 21.436M23.692 20.6231C24.115 20.9002 24.4441 21.2523 24.6816 21.6794M25.1184 21.436C25.1183 21.4359 25.1182 21.4357 25.1181 21.4355L24.6816 21.6794M25.1184 21.436C25.1185 21.4362 25.1185 21.4363 25.1186 21.4364L24.6816 21.6794M25.1184 21.436C25.4075 21.9536 25.5357 22.5655 25.5358 23.2391M25.5358 23.2391C25.5358 23.2388 25.5358 23.2386 25.5358 23.2384L25.0358 23.2398H25.5358C25.5358 23.2396 25.5358 23.2393 25.5358 23.2391ZM18.3894 18.3358C18.236 18.2632 18.0995 18.1592 17.9888 18.0306C17.9346 17.9608 17.9025 17.8764 17.9025 17.7523C17.9025 17.5935 17.9685 17.4158 18.2829 17.2065L18.3894 18.3358ZM19.767 25.2252C20.54 25.2252 21.1629 25.0585 21.642 24.7294M19.767 25.2252L21.642 24.7294M28.8878 22.2639L28.8588 22.4469L28.9562 22.6046C29.5885 23.6286 29.8582 24.8356 29.7189 26.0298C29.5796 27.2247 29.041 28.3375 28.1904 29.1881C27.3398 30.0387 26.2269 30.5773 25.0321 30.7167C23.8373 30.856 22.6304 30.588 21.6068 29.956L21.4491 29.8586L21.266 29.8876C19.8377 30.1136 18.3763 29.9984 17.001 29.5515C15.6258 29.1045 14.3759 28.3385 13.3534 27.316C12.3309 26.2935 11.5648 25.0435 11.1179 23.6683C10.6709 22.2931 10.5557 20.8316 10.7817 19.4033L10.8107 19.2204L10.7134 19.0627C10.0821 18.0393 9.81456 16.8329 9.95404 15.6385C10.0935 14.4442 10.6319 13.3319 11.482 12.4815C12.3322 11.6312 13.4444 11.0925 14.6386 10.9527C15.8329 10.8129 17.0394 11.0802 18.063 11.7112L18.2205 11.8084L18.4034 11.7795C19.8316 11.554 21.2929 11.6695 22.6679 12.1166C24.0429 12.5637 25.2927 13.3297 26.3151 14.3521C27.3375 15.3745 28.1036 16.6243 28.5507 17.9993C28.9978 19.3744 29.1133 20.8357 28.8878 22.2639ZM20.8821 17.1467C20.8832 17.1476 20.8843 17.1485 20.8854 17.1493L21.192 16.7544L20.878 17.1434C20.8794 17.1445 20.8807 17.1456 20.8821 17.1467Z" stroke="black"/>
<circle cx="20" cy="20" r="19.5" stroke="black"/>
</svg>
