<svg width="40" height="40" viewBox="0 0 40 40" fill="none" xmlns="http://www.w3.org/2000/svg">
<path fill-rule="evenodd" clip-rule="evenodd" d="M20.7167 14.265C18.7715 15.0742 14.8836 16.7488 9.0532 19.289C8.10644 19.6656 7.61048 20.034 7.56532 20.394C7.48902 21.0028 8.25124 21.2424 9.28918 21.5688C9.43036 21.6132 9.57664 21.6592 9.7266 21.7078C10.7478 22.0398 12.1214 22.4282 12.8355 22.4436C13.4833 22.4576 14.2063 22.1906 15.0044 21.6424C20.4519 17.9652 23.2641 16.1066 23.4405 16.0664C23.5651 16.0382 23.7377 16.0026 23.8547 16.1066C23.9717 16.2106 23.9601 16.4074 23.9477 16.4602C23.8723 16.7822 20.8803 19.5638 19.3319 21.0032C18.8493 21.452 18.5069 21.7702 18.4369 21.843C18.2801 22.0058 18.1203 22.1598 17.9667 22.3078C17.0181 23.2224 16.3065 23.9082 18.0061 25.0282C18.8227 25.5664 19.4763 26.0114 20.1283 26.4554C20.8403 26.9404 21.5505 27.424 22.4695 28.0264C22.7035 28.1798 22.9271 28.3392 23.1449 28.4944C23.9735 29.0852 24.7179 29.616 25.6377 29.5312C26.1721 29.4822 26.7241 28.9796 27.0045 27.4808C27.6671 23.9388 28.9695 16.2642 29.2705 13.1018C29.2969 12.8247 29.2637 12.4701 29.2369 12.3145C29.2103 12.1588 29.1547 11.937 28.9523 11.7728C28.7127 11.5784 28.3427 11.5374 28.1773 11.5402C27.4251 11.5536 26.2709 11.9549 20.7167 14.265Z" stroke="black" stroke-linejoin="round"/>
<circle cx="20" cy="20" r="19.5" stroke="black"/>
</svg>
