<svg width="26" height="26" viewBox="0 0 26 26" fill="none" xmlns="http://www.w3.org/2000/svg">
<path d="M25.025 12.8652C25.0357 13.3846 25.0036 13.9041 24.918 14.4183C24.8859 14.6197 24.9234 14.7946 25.0303 14.9748C25.6238 15.9925 25.9446 17.0898 25.9928 18.2665C26.0837 20.5034 25.319 22.4063 23.7043 23.9541C22.3836 25.221 20.7795 25.8942 18.9348 25.9896C17.3735 26.0691 15.9405 25.6927 14.6144 24.887C14.3899 24.7492 14.16 24.8075 13.9407 24.8287C13.1387 24.9082 12.3366 24.8923 11.5399 24.8022C10.0428 24.6379 8.60981 24.2192 7.27842 23.5089C4.23066 21.8763 2.19347 19.4168 1.22033 16.1145C0.872774 14.9271 0.728407 13.7133 0.760489 12.4835C0.771182 12.0277 0.803264 11.5665 0.894162 11.1159C0.91555 10.994 0.888815 10.8933 0.835346 10.7873C0.225793 9.63706 -0.0469013 8.40731 0.00656824 7.11395C0.0760786 5.43895 0.653549 3.94416 1.74433 2.6561C2.95809 1.22493 4.5087 0.366221 6.36409 0.0852863C7.9361 -0.147942 9.44929 0.0958877 10.8662 0.832678C10.9999 0.901587 11.1282 0.943992 11.294 0.917489C12.8018 0.716064 14.2883 0.806175 15.7694 1.15602C17.4216 1.54827 18.9187 2.26386 20.2662 3.28688C21.758 4.42122 22.9343 5.82589 23.7738 7.5009C24.4528 8.85787 24.8645 10.289 24.9875 11.805C25.0089 12.1655 25.0143 12.5153 25.025 12.8652ZM23.9556 12.791C23.9823 12.2927 23.9235 11.7467 23.8379 11.2114C23.4048 8.55043 22.1911 6.30295 20.1165 4.55374C17.5553 2.39107 14.5877 1.55887 11.2512 2.02002C11.032 2.05183 10.8288 2.04123 10.6203 1.91931C9.73267 1.39985 8.75953 1.12421 7.72757 1.08711C6.50846 1.0394 5.35352 1.29384 4.30017 1.91401C2.27368 3.10666 1.18824 4.88768 1.08131 7.21997C1.02784 8.39671 1.33261 9.50985 1.91543 10.5382C1.97959 10.6495 2.04376 10.7608 2.01702 10.9092C1.80314 12.1178 1.77641 13.3263 1.97425 14.5402C2.42339 17.2859 3.71735 19.5705 5.88822 21.3197C8.34781 23.3074 11.1817 24.0972 14.3417 23.7103C14.5877 23.6785 14.7962 23.7209 15.0155 23.8693C16.5714 24.9029 18.2825 25.1839 20.0897 24.7545C22.667 24.1503 24.6614 21.9505 24.9127 19.2153C25.0463 17.7736 24.7309 16.4272 23.9288 15.2028C23.8165 15.0278 23.7738 14.8582 23.8059 14.6515C23.9074 14.0578 23.9663 13.4535 23.9556 12.791Z" fill="#020E3A"/>
</svg>
