<svg width="40" height="40" viewBox="0 0 40 40" fill="none" xmlns="http://www.w3.org/2000/svg">
<circle cx="20" cy="20" r="19.5" stroke="#020E3A"/>
<path d="M31.4301 14.1554C31.6019 13.4899 31.4301 13.0001 30.604 13.0001H27.8704C27.1743 13.0001 26.854 13.4206 26.6823 13.8892C26.6823 13.8892 25.2901 17.781 23.3223 20.3046C22.6865 21.034 22.3941 21.2683 22.046 21.2683C21.8744 21.2683 21.6098 21.0339 21.6098 20.3685V14.1553C21.6098 13.3567 21.4148 13 20.8394 13H16.5419C16.1056 13 15.8457 13.3727 15.8457 13.7187C15.8457 14.4747 16.8296 14.6504 16.9317 16.78V21.4013C16.9317 22.4129 16.7739 22.5991 16.4259 22.5991C15.4977 22.5991 13.2421 18.6914 11.9056 14.2192C11.6364 13.3514 11.3718 13 10.671 13H7.93752C7.15784 13 7 13.4206 7 13.8891C7 14.7196 7.92821 18.8458 11.3208 24.2976C13.581 28.0191 16.7647 30.037 19.6606 30.037C21.401 30.037 21.6145 29.5899 21.6145 28.8179C21.6145 25.2613 21.4567 24.9258 22.3293 24.9258C22.733 24.9258 23.4292 25.16 25.0536 26.9543C26.9099 29.0839 27.2162 30.037 28.2558 30.037H30.9893C31.769 30.037 32.1635 29.5899 31.9361 28.7059C31.4163 26.8479 27.9031 23.0252 27.7453 22.7697C27.3415 22.1733 27.4575 21.9071 27.7453 21.3746C27.7499 21.3695 31.0867 15.9815 31.4301 14.1554Z" fill="#fff" stroke="#020E3A" stroke-miterlimit="10" stroke-linecap="round" stroke-linejoin="round"/>
</svg>
