<svg width="40" height="40" viewBox="0 0 40 40" fill="none" xmlns="http://www.w3.org/2000/svg">
<circle cx="20" cy="20" r="19.5" stroke="black"/>
<mask id="path-2-inside-1_214_117" fill="white">
<path d="M8.27816 13C7.82135 13 7.46922 13.1168 7.25295 13.3541C7.03669 13.5915 7 13.885 7 14.1249C7 14.3712 7.0574 14.7578 7.19407 15.3214C7.33073 15.8851 7.54814 16.608 7.87397 17.4515C8.52562 19.1383 9.61174 21.3067 11.3524 23.6241C13.8957 27.0091 17.2581 28.9987 20.3236 28.9987C21.2343 28.9987 21.7858 28.9046 22.1626 28.6289C22.5394 28.3533 22.6096 27.9163 22.6096 27.547V24.5108V24.5095C22.6105 24.1268 22.6702 23.906 22.7207 23.8312C22.7713 23.7562 22.8021 23.7335 23.0218 23.7335C23.1013 23.7335 23.3529 23.7932 23.7727 24.0968C24.1924 24.4003 24.7766 24.9344 25.554 25.8167C26.4518 26.8352 26.9778 27.5884 27.4385 28.1212C27.8992 28.6539 28.3702 29 29.0044 29H31.7548C32.122 29 32.4408 28.9246 32.6716 28.7188C32.9023 28.513 32.9908 28.2136 32.9995 27.9089V27.9076C33.0039 27.7403 32.9794 27.5661 32.9299 27.3816L32.9272 27.3712L32.9232 27.3595C32.685 26.6706 31.8659 25.2557 30.6747 23.8546V23.8533C30.0173 23.0808 29.2608 22.3047 29.0098 21.955L29.0084 21.9537L29.0071 21.9511C28.8309 21.7123 28.8048 21.6066 28.809 21.528C28.8133 21.4429 28.8756 21.3063 29.0245 21.0592L29.0272 21.054C29.0261 21.0556 29.0275 21.054 29.0312 21.0475C29.0349 21.0419 29.0405 21.0339 29.0499 21.0202C29.073 20.9865 29.1095 20.9343 29.157 20.8665C29.2519 20.731 29.3894 20.5336 29.5572 20.2924C29.8927 19.81 30.3476 19.1491 30.8139 18.4358C31.2803 17.7224 31.7582 16.9568 32.1456 16.2602C32.5299 15.5691 32.823 14.9644 32.9286 14.479C32.9895 14.2734 32.987 14.0881 32.9807 13.9583C32.9715 13.7401 32.9287 13.4862 32.7331 13.2851C32.5376 13.0842 32.2398 13 31.8806 13H29.1302C28.7137 13 28.369 13.1321 28.1211 13.332C27.8731 13.5319 27.721 13.785 27.6152 14.0168C27.6063 14.0344 25.9039 17.4223 23.9814 19.6271C23.6772 19.9371 23.4512 20.1238 23.2908 20.2195C23.1447 20.3066 23.0595 20.3253 22.9576 20.3288C22.9505 20.3266 22.9467 20.3267 22.9362 20.3197C22.8996 20.2954 22.8456 20.2487 22.7956 20.1869C22.6957 20.0633 22.6109 19.8853 22.6109 19.67V14.3697C22.6109 13.9874 22.574 13.6661 22.3874 13.3984C22.2009 13.1307 21.8578 13 21.4987 13H16.7448C16.4411 13 16.1693 13.129 15.9993 13.3203C15.8293 13.5116 15.7517 13.7508 15.7517 13.9882C15.7517 14.4254 15.9446 14.7008 16.0983 15.0402C16.252 15.3796 16.4145 15.8411 16.4664 16.7627V20.4473C16.4664 20.792 16.4607 20.8872 16.4597 20.9681C16.3838 20.9526 16.1808 20.8704 15.9083 20.5892C15.6129 20.2844 15.2665 19.8155 14.9099 19.2182C14.1966 18.0238 13.4355 16.3162 12.826 14.3293L12.8247 14.3254L12.8233 14.3215C12.6836 13.9065 12.5386 13.5821 12.2813 13.3424C12.024 13.1028 11.6687 13 11.2708 13H8.27816ZM8.27816 13.6666H11.2708C11.567 13.6666 11.691 13.7143 11.8075 13.8228C11.924 13.9314 12.0461 14.1523 12.1729 14.5285C12.7957 16.5567 13.5703 18.3003 14.3183 19.5529C14.6928 20.1801 15.0591 20.6851 15.4104 21.0475C15.7617 21.4099 16.0914 21.666 16.5066 21.666C16.5909 21.666 16.6656 21.6788 16.797 21.6412C16.9283 21.6037 17.0808 21.4415 17.1169 21.3196C17.189 21.0758 17.1517 20.8916 17.1517 20.4473V16.7354V16.7263C17.096 15.7373 16.9015 15.1623 16.7247 14.772C16.5479 14.3816 16.437 14.2329 16.437 13.9882C16.437 13.8976 16.4703 13.8108 16.5186 13.7564C16.5669 13.7021 16.6209 13.6666 16.7448 13.6666H21.4987C21.7269 13.6666 21.7689 13.6988 21.8199 13.7721C21.871 13.8454 21.9257 14.0427 21.9257 14.3697V19.67C21.9257 20.0547 22.0747 20.3736 22.2563 20.5983C22.3471 20.7107 22.4456 20.8016 22.5494 20.8705C22.6531 20.9393 22.7523 20.9993 22.9241 20.9993C23.1521 20.9993 23.402 20.9348 23.6495 20.7871C23.8971 20.6395 24.1553 20.4171 24.486 20.0789L24.4927 20.0723L24.4981 20.0658C26.5223 17.7471 28.2362 14.2981 28.2362 14.2981L28.2388 14.2929L28.2415 14.2877C28.3228 14.1096 28.4248 13.9519 28.5574 13.845C28.6899 13.7381 28.8518 13.6666 29.1302 13.6666H31.8806C32.1374 13.6666 32.2116 13.7177 32.2366 13.7434C32.2617 13.7692 32.289 13.8338 32.2955 13.9856V13.9869C32.3014 14.1091 32.3015 14.2037 32.2714 14.2994L32.2674 14.315L32.2634 14.3293C32.1933 14.6603 31.9182 15.2696 31.5433 15.9438C31.1685 16.6179 30.6969 17.3736 30.2357 18.079C29.7746 18.7844 29.3232 19.4392 28.9897 19.9187C28.8229 20.1584 28.6864 20.355 28.5908 20.4916C28.543 20.5599 28.506 20.6121 28.4798 20.6504C28.4666 20.6696 28.4558 20.6851 28.4463 20.6999C28.4426 20.7056 28.438 20.7132 28.4329 20.722C28.4314 20.7246 28.4308 20.7251 28.4289 20.7285C28.4247 20.736 28.4088 20.7728 28.4088 20.7728C28.4088 20.7728 28.405 20.7874 28.4035 20.7949C28.2676 21.0214 28.1389 21.2289 28.1251 21.4941C28.1101 21.775 28.2337 22.0451 28.4503 22.3391V22.3404C28.7867 22.808 29.5123 23.5343 30.146 24.279C31.2835 25.617 32.0959 27.0704 32.2687 27.5639C32.3024 27.6939 32.3179 27.8041 32.3156 27.8907C32.3098 28.0921 32.2657 28.1756 32.2085 28.2266C32.1513 28.2777 32.0262 28.3334 31.7548 28.3334H29.0044C28.5964 28.3334 28.3823 28.1763 27.9631 27.6915C27.5439 27.2067 26.9949 26.4271 26.0747 25.3831C25.276 24.4768 24.665 23.9108 24.1822 23.5616C23.6994 23.2124 23.3426 23.0669 23.0218 23.0669C22.6803 23.0669 22.3338 23.1899 22.1479 23.4653C21.9619 23.7407 21.9251 24.0749 21.9243 24.5095V27.547C21.9243 27.8589 21.9048 27.9822 21.7504 28.0951C21.596 28.208 21.1761 28.3321 20.3236 28.3321C17.5673 28.3321 14.3534 26.4894 11.9052 23.2309C10.2045 20.9668 9.14787 18.8518 8.51639 17.2171C8.20065 16.3998 7.99135 15.7016 7.86192 15.1678C7.73249 14.634 7.68525 14.2472 7.68525 14.1249C7.68525 13.9555 7.71458 13.8528 7.76556 13.7968C7.81654 13.7409 7.93322 13.6666 8.27816 13.6666Z"/>
</mask>
<path d="M8.27816 13C7.82135 13 7.46922 13.1168 7.25295 13.3541C7.03669 13.5915 7 13.885 7 14.1249C7 14.3712 7.0574 14.7578 7.19407 15.3214C7.33073 15.8851 7.54814 16.608 7.87397 17.4515C8.52562 19.1383 9.61174 21.3067 11.3524 23.6241C13.8957 27.0091 17.2581 28.9987 20.3236 28.9987C21.2343 28.9987 21.7858 28.9046 22.1626 28.6289C22.5394 28.3533 22.6096 27.9163 22.6096 27.547V24.5108V24.5095C22.6105 24.1268 22.6702 23.906 22.7207 23.8312C22.7713 23.7562 22.8021 23.7335 23.0218 23.7335C23.1013 23.7335 23.3529 23.7932 23.7727 24.0968C24.1924 24.4003 24.7766 24.9344 25.554 25.8167C26.4518 26.8352 26.9778 27.5884 27.4385 28.1212C27.8992 28.6539 28.3702 29 29.0044 29H31.7548C32.122 29 32.4408 28.9246 32.6716 28.7188C32.9023 28.513 32.9908 28.2136 32.9995 27.9089V27.9076C33.0039 27.7403 32.9794 27.5661 32.9299 27.3816L32.9272 27.3712L32.9232 27.3595C32.685 26.6706 31.8659 25.2557 30.6747 23.8546V23.8533C30.0173 23.0808 29.2608 22.3047 29.0098 21.955L29.0084 21.9537L29.0071 21.9511C28.8309 21.7123 28.8048 21.6066 28.809 21.528C28.8133 21.4429 28.8756 21.3063 29.0245 21.0592L29.0272 21.054C29.0261 21.0556 29.0275 21.054 29.0312 21.0475C29.0349 21.0419 29.0405 21.0339 29.0499 21.0202C29.073 20.9865 29.1095 20.9343 29.157 20.8665C29.2519 20.731 29.3894 20.5336 29.5572 20.2924C29.8927 19.81 30.3476 19.1491 30.8139 18.4358C31.2803 17.7224 31.7582 16.9568 32.1456 16.2602C32.5299 15.5691 32.823 14.9644 32.9286 14.479C32.9895 14.2734 32.987 14.0881 32.9807 13.9583C32.9715 13.7401 32.9287 13.4862 32.7331 13.2851C32.5376 13.0842 32.2398 13 31.8806 13H29.1302C28.7137 13 28.369 13.1321 28.1211 13.332C27.8731 13.5319 27.721 13.785 27.6152 14.0168C27.6063 14.0344 25.9039 17.4223 23.9814 19.6271C23.6772 19.9371 23.4512 20.1238 23.2908 20.2195C23.1447 20.3066 23.0595 20.3253 22.9576 20.3288C22.9505 20.3266 22.9467 20.3267 22.9362 20.3197C22.8996 20.2954 22.8456 20.2487 22.7956 20.1869C22.6957 20.0633 22.6109 19.8853 22.6109 19.67V14.3697C22.6109 13.9874 22.574 13.6661 22.3874 13.3984C22.2009 13.1307 21.8578 13 21.4987 13H16.7448C16.4411 13 16.1693 13.129 15.9993 13.3203C15.8293 13.5116 15.7517 13.7508 15.7517 13.9882C15.7517 14.4254 15.9446 14.7008 16.0983 15.0402C16.252 15.3796 16.4145 15.8411 16.4664 16.7627V20.4473C16.4664 20.792 16.4607 20.8872 16.4597 20.9681C16.3838 20.9526 16.1808 20.8704 15.9083 20.5892C15.6129 20.2844 15.2665 19.8155 14.9099 19.2182C14.1966 18.0238 13.4355 16.3162 12.826 14.3293L12.8247 14.3254L12.8233 14.3215C12.6836 13.9065 12.5386 13.5821 12.2813 13.3424C12.024 13.1028 11.6687 13 11.2708 13H8.27816ZM8.27816 13.6666H11.2708C11.567 13.6666 11.691 13.7143 11.8075 13.8228C11.924 13.9314 12.0461 14.1523 12.1729 14.5285C12.7957 16.5567 13.5703 18.3003 14.3183 19.5529C14.6928 20.1801 15.0591 20.6851 15.4104 21.0475C15.7617 21.4099 16.0914 21.666 16.5066 21.666C16.5909 21.666 16.6656 21.6788 16.797 21.6412C16.9283 21.6037 17.0808 21.4415 17.1169 21.3196C17.189 21.0758 17.1517 20.8916 17.1517 20.4473V16.7354V16.7263C17.096 15.7373 16.9015 15.1623 16.7247 14.772C16.5479 14.3816 16.437 14.2329 16.437 13.9882C16.437 13.8976 16.4703 13.8108 16.5186 13.7564C16.5669 13.7021 16.6209 13.6666 16.7448 13.6666H21.4987C21.7269 13.6666 21.7689 13.6988 21.8199 13.7721C21.871 13.8454 21.9257 14.0427 21.9257 14.3697V19.67C21.9257 20.0547 22.0747 20.3736 22.2563 20.5983C22.3471 20.7107 22.4456 20.8016 22.5494 20.8705C22.6531 20.9393 22.7523 20.9993 22.9241 20.9993C23.1521 20.9993 23.402 20.9348 23.6495 20.7871C23.8971 20.6395 24.1553 20.4171 24.486 20.0789L24.4927 20.0723L24.4981 20.0658C26.5223 17.7471 28.2362 14.2981 28.2362 14.2981L28.2388 14.2929L28.2415 14.2877C28.3228 14.1096 28.4248 13.9519 28.5574 13.845C28.6899 13.7381 28.8518 13.6666 29.1302 13.6666H31.8806C32.1374 13.6666 32.2116 13.7177 32.2366 13.7434C32.2617 13.7692 32.289 13.8338 32.2955 13.9856V13.9869C32.3014 14.1091 32.3015 14.2037 32.2714 14.2994L32.2674 14.315L32.2634 14.3293C32.1933 14.6603 31.9182 15.2696 31.5433 15.9438C31.1685 16.6179 30.6969 17.3736 30.2357 18.079C29.7746 18.7844 29.3232 19.4392 28.9897 19.9187C28.8229 20.1584 28.6864 20.355 28.5908 20.4916C28.543 20.5599 28.506 20.6121 28.4798 20.6504C28.4666 20.6696 28.4558 20.6851 28.4463 20.6999C28.4426 20.7056 28.438 20.7132 28.4329 20.722C28.4314 20.7246 28.4308 20.7251 28.4289 20.7285C28.4247 20.736 28.4088 20.7728 28.4088 20.7728C28.4088 20.7728 28.405 20.7874 28.4035 20.7949C28.2676 21.0214 28.1389 21.2289 28.1251 21.4941C28.1101 21.775 28.2337 22.0451 28.4503 22.3391V22.3404C28.7867 22.808 29.5123 23.5343 30.146 24.279C31.2835 25.617 32.0959 27.0704 32.2687 27.5639C32.3024 27.6939 32.3179 27.8041 32.3156 27.8907C32.3098 28.0921 32.2657 28.1756 32.2085 28.2266C32.1513 28.2777 32.0262 28.3334 31.7548 28.3334H29.0044C28.5964 28.3334 28.3823 28.1763 27.9631 27.6915C27.5439 27.2067 26.9949 26.4271 26.0747 25.3831C25.276 24.4768 24.665 23.9108 24.1822 23.5616C23.6994 23.2124 23.3426 23.0669 23.0218 23.0669C22.6803 23.0669 22.3338 23.1899 22.1479 23.4653C21.9619 23.7407 21.9251 24.0749 21.9243 24.5095V27.547C21.9243 27.8589 21.9048 27.9822 21.7504 28.0951C21.596 28.208 21.1761 28.3321 20.3236 28.3321C17.5673 28.3321 14.3534 26.4894 11.9052 23.2309C10.2045 20.9668 9.14787 18.8518 8.51639 17.2171C8.20065 16.3998 7.99135 15.7016 7.86192 15.1678C7.73249 14.634 7.68525 14.2472 7.68525 14.1249C7.68525 13.9555 7.71458 13.8528 7.76556 13.7968C7.81654 13.7409 7.93322 13.6666 8.27816 13.6666Z" stroke="black" stroke-width="2" mask="url(#path-2-inside-1_214_117)"/>
</svg>
